<?xml version="1.0" standalone="no"?>
<!DOCTYPE svg PUBLIC "-//W3C//DTD SVG 20010904//EN"
 "http://www.w3.org/TR/2001/REC-SVG-20010904/DTD/svg10.dtd">
<svg version="1.0" xmlns="http://www.w3.org/2000/svg"
 width="497.000000pt" height="497.000000pt" viewBox="0 0 497.000000 497.000000"
 preserveAspectRatio="xMidYMid meet">
<metadata>
Created by potrace 1.14, written by Peter Selinger 2001-2017
</metadata>
<g transform="translate(0.000000,497.000000) scale(0.100000,-0.100000)"
fill="#000000" stroke="none">
<path d="M2510 4453 c-84 -8 -276 -39 -288 -46 -4 -3 -25 -8 -46 -11 -22 -4
-45 -11 -53 -17 -7 -6 -13 -9 -13 -6 0 4 -30 -6 -67 -20 -38 -14 -74 -26 -80
-26 -7 0 -13 -4 -13 -8 0 -6 -23 -16 -58 -24 -8 -2 -21 -10 -30 -17 -10 -8
-39 -25 -67 -38 -27 -13 -55 -29 -62 -34 -34 -30 -41 -34 -47 -29 -3 4 -6 0
-6 -7 0 -7 -3 -11 -6 -7 -3 3 -14 -2 -23 -11 -10 -10 -28 -24 -41 -32 -13 -8
-32 -23 -42 -32 -10 -10 -18 -15 -18 -12 0 3 -20 -15 -45 -39 -25 -25 -45 -51
-45 -57 0 -6 -4 -8 -10 -5 -5 3 -10 2 -10 -4 0 -6 -10 -20 -23 -33 -12 -13
-36 -41 -52 -63 -17 -22 -36 -46 -43 -53 -6 -7 -12 -17 -12 -21 0 -4 -9 -18
-20 -31 -11 -13 -20 -29 -20 -37 0 -7 -4 -13 -9 -13 -5 0 -13 -9 -16 -20 -3
-11 -12 -26 -18 -33 -7 -7 -21 -30 -32 -52 -11 -22 -22 -42 -25 -45 -3 -3 -12
-18 -21 -34 -19 -33 -23 -34 -134 -37 -64 -2 -214 -25 -270 -42 -51 -16 -95
-31 -122 -43 -17 -8 -35 -14 -41 -14 -5 0 -15 -7 -22 -15 -7 -8 -16 -12 -21
-9 -5 3 -12 -2 -15 -10 -3 -9 -10 -14 -14 -11 -5 3 -14 -1 -22 -8 -7 -7 -26
-20 -41 -30 -33 -22 -44 -31 -119 -102 -32 -30 -58 -59 -58 -65 0 -6 -4 -9 -8
-6 -5 3 -15 -6 -22 -19 -7 -14 -17 -25 -22 -25 -4 0 -8 -6 -8 -14 0 -8 -4 -16
-9 -18 -12 -4 -73 -103 -103 -168 -31 -66 -64 -162 -72 -210 -3 -19 -8 -46
-11 -60 -7 -36 -7 -257 1 -309 3 -24 15 -78 25 -120 11 -42 21 -84 24 -95 2
-10 9 -24 16 -32 6 -8 8 -14 5 -14 -4 0 1 -15 10 -32 9 -18 21 -42 27 -52 26
-53 63 -115 86 -146 40 -55 157 -165 224 -212 17 -12 34 -25 37 -28 3 -3 22
-14 42 -25 21 -11 38 -23 38 -27 0 -5 6 -8 13 -8 7 0 29 -11 50 -25 28 -20 37
-33 37 -54 0 -15 -23 -97 -51 -182 -60 -182 -74 -290 -44 -352 9 -20 21 -37
26 -37 5 0 9 -6 9 -12 1 -33 159 -117 253 -135 23 -4 105 -8 182 -7 106 0 154
5 200 19 33 10 62 19 65 19 22 4 72 54 91 93 23 49 26 101 16 313 -2 46 1 55
15 54 74 -6 181 -16 195 -18 10 -2 59 -7 108 -10 50 -4 117 -9 150 -11 105 -8
196 -14 335 -20 74 -4 138 -10 141 -14 4 -3 9 -87 13 -186 5 -184 18 -280 41
-325 16 -30 66 -78 86 -82 8 -2 17 -7 20 -11 3 -5 12 -10 20 -11 8 -2 21 -6
29 -9 98 -38 383 -27 470 18 16 9 30 13 30 10 0 -7 63 27 71 38 3 5 8 7 10 5
11 -8 93 82 115 124 22 44 24 56 20 160 -3 62 -7 124 -10 138 -2 14 -8 48 -12
75 -4 28 -8 55 -9 60 -2 6 -8 37 -14 70 -7 33 -14 70 -17 82 -3 18 4 27 38 45
24 12 46 21 51 20 4 -1 7 2 7 7 0 7 13 14 50 25 3 1 10 4 15 8 6 3 64 34 130
69 180 94 179 93 212 117 17 12 34 22 37 22 4 0 24 11 46 25 48 30 50 28 66
-79 14 -96 134 -143 354 -140 91 2 184 28 251 70 45 28 129 113 129 131 0 7 3
13 8 13 4 0 13 14 21 31 31 71 20 162 -60 489 -26 107 -29 127 -36 197 -5 53
-3 66 16 92 12 17 19 31 14 31 -4 0 -1 6 7 13 8 7 28 32 45 57 30 45 45 66
123 171 23 31 42 61 42 67 0 7 4 12 9 12 11 0 87 115 111 170 6 13 16 27 21
31 6 3 11 12 12 20 2 8 7 21 12 29 11 17 13 28 21 85 6 52 -19 85 -65 85 -43
0 -121 -20 -121 -31 0 -5 -4 -9 -10 -9 -5 0 -49 -22 -96 -50 -48 -27 -90 -47
-95 -45 -4 3 -10 20 -14 38 -10 48 -66 211 -76 222 -5 5 -9 17 -9 27 0 10 -4
18 -10 18 -5 0 -10 9 -10 19 0 11 -3 21 -7 23 -5 2 -24 33 -43 71 -19 37 -38
67 -42 67 -5 0 -8 6 -8 13 0 7 -9 23 -19 34 -11 12 -17 24 -14 27 4 3 1 6 -5
6 -7 0 -12 6 -12 14 0 8 -7 16 -15 20 -8 3 -15 12 -15 21 0 8 -4 15 -10 15 -5
0 -10 5 -10 10 0 6 -8 18 -17 29 -10 10 -36 41 -58 67 -54 66 -128 148 -140
156 -5 3 -38 33 -72 66 -35 33 -63 58 -63 56 0 -3 -10 4 -22 16 -110 103 -413
257 -558 284 -14 2 -46 9 -72 15 -26 6 -68 13 -95 16 -26 3 -59 9 -73 12 -28
6 -515 12 -570 6z"/>
</g>
</svg>
