<?xml version="1.0" standalone="no"?>
<!DOCTYPE svg PUBLIC "-//W3C//DTD SVG 20010904//EN"
 "http://www.w3.org/TR/2001/REC-SVG-20010904/DTD/svg10.dtd">
<svg version="1.0" xmlns="http://www.w3.org/2000/svg"
 width="800.000000pt" height="800.000000pt" viewBox="0 0 800.000000 800.000000"
 preserveAspectRatio="xMidYMid meet">
<metadata>
Created by potrace 1.14, written by Peter Selinger 2001-2017
</metadata>
<g transform="translate(0.000000,800.000000) scale(0.100000,-0.100000)"
fill="#000000" stroke="none">
<path d="M0 7521 c0 -264 4 -482 9 -485 21 -14 642 -2 801 15 80 8 124 8 185
-1 44 -7 170 -16 280 -19 163 -6 206 -10 233 -24 33 -18 33 -18 63 8 17 14 35
25 41 25 5 0 40 13 78 30 37 16 92 35 121 41 30 6 79 20 109 31 66 24 199 47
335 57 80 6 127 16 235 53 190 64 236 77 331 89 82 10 118 17 269 57 69 18
190 35 190 27 0 -7 -106 -34 -175 -45 -38 -6 -104 -22 -145 -35 -42 -13 -116
-28 -165 -33 -69 -7 -118 -20 -210 -56 -127 -50 -231 -74 -355 -82 -93 -7
-276 -45 -395 -84 -49 -16 -108 -34 -131 -40 -54 -13 -124 -64 -124 -90 0 -11
3 -20 8 -20 4 0 6 -27 6 -60 -1 -33 3 -60 8 -60 5 0 8 -8 7 -17 -3 -37 1 -53
16 -53 20 0 19 -7 -4 -31 -11 -12 -25 -18 -31 -14 -9 6 -9 2 -1 -14 13 -24 9
-25 -36 -9 -34 12 -41 22 -23 33 6 4 7 11 4 17 -4 6 -6 28 -6 50 1 21 -3 38
-8 38 -6 0 -10 5 -10 10 0 6 6 9 13 8 7 -2 11 5 9 17 -4 28 -5 77 0 94 6 27
-71 43 -247 52 -93 5 -249 13 -345 19 -126 7 -193 7 -240 -1 -36 -6 -105 -10
-155 -9 -169 3 -190 3 -367 -5 l-178 -8 0 -3499 0 -3498 1033 1 c749 0 1026 3
1010 11 -28 14 -29 27 -2 75 35 63 37 64 74 45 39 -19 38 -33 -2 -92 l-23 -35
26 -3 c16 -2 31 3 40 15 13 16 13 16 8 1 -5 -16 2 -18 63 -18 l69 0 18 38 c10
20 26 60 36 87 10 28 34 84 54 126 20 42 36 81 36 87 0 13 75 80 106 94 47 21
11 45 -72 47 -49 1 -86 36 -135 130 -18 35 -43 68 -56 74 -16 7 -22 16 -18 28
5 13 -6 26 -37 49 -197 140 -199 142 -196 170 1 15 -7 38 -20 54 -28 36 -29
87 -2 111 18 16 29 18 88 9 105 -14 209 12 162 41 -17 10 -11 71 8 88 24 22
24 22 100 -9 35 -14 91 -30 125 -36 34 -5 73 -18 87 -27 14 -10 43 -26 65 -36
22 -10 81 -42 131 -72 50 -29 95 -53 101 -53 19 0 54 -47 64 -86 11 -43 10
-41 72 -174 65 -140 91 -224 77 -249 -13 -24 -30 -28 -30 -6 0 8 -4 15 -9 15
-5 0 -16 16 -25 35 -9 19 -18 35 -20 35 -2 0 -2 -20 -2 -45 1 -54 17 -63 115
-71 36 -2 93 -9 126 -15 33 -5 105 -16 160 -25 108 -16 231 -42 256 -55 8 -4
21 -4 29 1 8 5 21 5 31 -1 12 -6 19 -5 21 3 3 9 11 8 29 -4 16 -10 31 -13 40
-7 10 5 35 2 65 -7 27 -8 57 -13 67 -10 10 2 32 0 49 -5 24 -7 36 -5 49 7 10
9 22 13 28 10 19 -12 113 -15 136 -4 13 6 32 7 42 3 27 -12 197 -8 201 4 2 6
21 8 49 4 34 -4 44 -3 39 5 -10 16 79 16 123 1 34 -12 55 -4 31 11 -22 13 2
19 80 19 36 0 83 3 105 7 22 4 58 7 80 6 22 0 43 5 47 11 7 12 139 19 317 17
102 -1 219 -37 351 -109 80 -43 209 -95 218 -87 2 2 -6 7 -18 11 -25 8 -21 31
6 28 10 -2 42 -6 69 -9 28 -4 99 -6 158 -6 119 1 163 -13 154 -49 -3 -11 7
-36 24 -59 20 -28 29 -52 29 -79 0 -78 -84 -71 851 -71 l839 0 0 3599 c0 3420
-1 3600 -17 3605 -10 3 -61 14 -113 25 -217 46 -319 70 -337 79 -10 5 -38 13
-63 17 -52 8 -229 39 -346 60 -45 9 -124 29 -175 46 -52 17 -137 41 -189 54
-135 32 -387 101 -440 120 -59 21 -267 22 -287 2 -8 -8 -15 -33 -16 -58 -1
-24 -6 -47 -12 -51 -6 -5 -5 -8 4 -8 10 0 11 -3 2 -14 -9 -11 -9 -16 0 -21 8
-6 7 -10 -2 -16 -12 -8 -11 -11 1 -19 13 -8 12 -10 -5 -11 -19 0 -19 -1 -1 -8
14 -5 16 -10 8 -15 -7 -4 -12 -23 -12 -42 0 -39 -23 -54 -68 -46 -21 4 -23 7
-11 16 17 13 20 67 4 78 -6 5 -3 8 7 8 11 0 15 5 12 15 -4 8 -1 15 6 15 7 0
10 7 7 15 -4 8 -2 17 3 20 5 3 6 15 1 27 -5 13 -2 41 6 70 13 43 13 52 0 71
-18 28 -176 118 -237 136 -25 7 -75 29 -113 47 -37 19 -91 44 -120 55 -28 11
-72 33 -97 48 -25 15 -82 40 -126 55 l-82 27 -300 -3 -300 -3 -44 -33 c-23
-18 -90 -63 -147 -100 -56 -37 -155 -108 -220 -159 -127 -101 -157 -120 -168
-109 -10 10 49 60 142 123 39 26 94 68 124 93 98 81 155 120 218 150 35 17 63
32 63 35 0 3 -1026 5 -2280 5 l-2280 0 0 -479z m3540 -40 c0 -11 -35 -21 -76
-21 -17 0 -44 -4 -60 -9 -53 -17 -99 -22 -88 -11 31 31 224 67 224 41z m2330
-170 c0 -11 -4 -22 -8 -25 -11 -7 -3 -67 11 -84 9 -11 12 -10 19 7 11 30 32
35 62 16 29 -19 35 -59 10 -69 -8 -3 -13 -10 -9 -16 4 -6 -17 -8 -57 -5 -37 3
-55 1 -43 -4 16 -7 14 -9 -14 -14 -18 -4 -30 -11 -27 -16 7 -11 -3 -41 -14
-41 -4 0 -13 14 -20 31 -11 26 -11 32 1 40 10 7 11 11 2 17 -16 10 -26 57 -19
87 15 61 106 125 106 76z m155 -11 c3 -5 1 -10 -4 -10 -6 0 -11 5 -11 10 0 6
2 10 4 10 3 0 8 -4 11 -10z m60 -60 c21 -41 20 -80 -4 -80 -16 0 -19 8 -20 55
0 30 1 55 4 55 2 0 11 -13 20 -30z m15 -107 c0 -10 -5 -25 -10 -33 -9 -13 -12
-13 -21 3 -5 9 -19 17 -29 17 -10 0 -22 5 -26 12 -4 7 -3 8 4 4 7 -4 20 -2 29
3 28 16 53 13 53 -6z m-2327 -404 c11 -7 42 -13 69 -15 37 -3 48 0 48 11 0 22
18 18 30 -6 8 -14 15 -17 23 -11 7 5 22 13 35 16 16 6 22 3 22 -9 0 -11 6 -15
18 -11 34 10 72 15 69 8 -12 -22 61 -51 74 -30 5 8 13 6 24 -6 10 -9 23 -15
30 -12 7 2 21 -5 32 -16 10 -11 26 -23 35 -27 18 -7 118 -139 118 -157 0 -17
-50 -104 -60 -104 -15 0 -82 -65 -91 -89 -12 -29 13 -61 47 -61 27 0 43 20 17
21 -14 0 -15 2 -3 6 42 16 70 45 70 74 0 29 14 40 23 17 3 -8 20 3 45 30 39
42 39 42 73 28 54 -23 96 -83 109 -157 6 -35 22 -96 35 -136 27 -82 25 -83
-54 -30 -47 32 -39 31 -244 28 l-107 -1 -45 -44 c-25 -24 -45 -50 -45 -59 0
-32 84 -31 211 3 58 16 73 16 120 5 57 -13 119 -44 119 -59 0 -5 32 -40 70
-78 106 -103 168 -209 142 -241 -8 -9 -7 -28 4 -68 18 -64 26 -260 12 -300 -9
-26 -75 -89 -93 -89 -12 0 -34 -33 -35 -52 0 -19 -28 -50 -39 -43 -5 2 -18 -5
-30 -16 -15 -14 -19 -27 -15 -44 4 -16 -1 -34 -17 -56 -12 -18 -23 -39 -24
-48 -3 -36 -17 -61 -35 -61 -13 0 -20 11 -26 48 -4 26 -7 57 -6 70 2 12 -1 22
-6 22 -5 0 -14 -10 -20 -22 -8 -17 -11 -18 -11 -7 -1 9 -8 22 -16 29 -8 7 -15
18 -15 24 0 6 7 2 15 -8 8 -11 15 -14 15 -7 0 6 6 18 12 25 11 11 15 11 25 -3
11 -14 12 -11 13 17 0 22 5 32 16 32 14 0 14 1 0 16 -9 8 -16 25 -16 37 0 12
-22 45 -49 75 -49 52 -76 67 -64 35 5 -13 3 -15 -13 -9 -10 4 -32 10 -49 13
-16 3 -35 12 -42 20 -6 8 -18 13 -25 11 -7 -3 -19 1 -26 9 -41 40 -215 -13
-224 -69 -5 -32 26 -87 50 -90 24 -2 139 -7 194 -7 53 0 88 -14 88 -36 0 -10
-11 -15 -32 -15 -52 0 -75 -10 -87 -36 -10 -22 -8 -24 14 -24 13 0 26 -4 30
-9 6 -11 46 -6 54 7 8 12 47 32 63 32 8 0 21 -25 31 -62 9 -35 22 -77 28 -95
7 -23 7 -38 -2 -55 -25 -47 -29 -58 -29 -74 0 -13 -6 -15 -27 -9 -15 3 -32 7
-38 8 -5 1 -10 -11 -10 -26 0 -15 -10 -38 -22 -51 -13 -13 -23 -28 -23 -33 0
-26 -23 -29 -46 -6 -13 13 -24 29 -24 36 0 7 -7 20 -15 31 -20 27 -3 54 37 58
30 3 33 7 40 47 4 25 6 46 4 48 -2 2 -23 -3 -47 -12 -52 -19 -144 -36 -214
-39 -27 -1 -52 -3 -55 -5 -8 -3 -83 -13 -103 -12 -27 0 -32 -28 -12 -66 18
-32 18 -36 2 -63 -9 -15 -17 -34 -17 -42 0 -13 -58 -48 -80 -48 -6 0 -10 9
-10 20 0 13 -10 24 -25 30 -13 5 -30 18 -37 30 -7 11 -21 20 -30 20 -10 0 -18
4 -18 9 0 5 -9 13 -20 16 -11 3 -20 15 -20 25 0 13 -5 17 -21 13 -16 -5 -20
-2 -18 13 1 10 -1 27 -6 37 -4 10 -5 41 -2 69 5 38 3 49 -7 45 -7 -3 -13 0
-14 6 -1 7 -5 29 -8 50 -6 35 -3 41 31 70 21 18 45 33 54 34 39 6 76 17 82 25
6 10 109 28 187 33 76 5 123 40 92 71 -5 5 -11 20 -13 34 -5 31 -59 60 -114
60 -24 0 -43 -4 -43 -9 0 -5 -13 -11 -30 -13 -34 -5 -37 -1 -14 17 16 11 16
12 0 18 -12 5 -20 -1 -28 -21 -6 -15 -10 -34 -9 -42 1 -11 0 -12 -7 -3 -6 10
-12 10 -28 -2 -10 -8 -27 -15 -37 -15 -10 0 -43 -12 -73 -26 -55 -26 -96 -72
-123 -141 -14 -36 -7 -89 13 -96 10 -4 12 1 9 16 -4 22 -4 22 11 3 9 -11 16
-26 16 -33 0 -7 5 -13 10 -13 6 0 10 -16 10 -36 0 -31 -2 -35 -15 -24 -12 10
-17 8 -26 -13 -16 -36 -39 -43 -39 -12 0 13 -11 37 -25 53 -14 17 -25 37 -25
46 0 12 -6 15 -24 10 -19 -4 -27 0 -37 18 -7 12 -13 26 -14 30 0 11 -58 64
-76 70 -9 4 -22 1 -28 -5 -8 -8 -11 -8 -11 0 0 6 -6 18 -13 25 -7 7 -18 24
-25 38 -7 14 -24 45 -37 70 -14 25 -25 55 -25 66 0 12 -6 37 -14 55 -7 19 -14
80 -15 139 -2 58 -5 108 -8 113 -2 4 0 14 6 21 6 7 10 24 9 37 -3 38 79 183
123 219 21 17 39 37 39 45 0 7 27 32 60 54 71 49 135 60 225 40 69 -15 136
-13 150 5 6 7 18 15 28 19 27 10 20 25 -25 54 -38 25 -52 28 -129 28 -177 1
-234 -8 -292 -47 -84 -57 -80 -57 -72 0 4 32 3 52 -4 57 -6 3 -11 15 -11 26 0
10 -4 19 -10 19 -16 0 -12 46 5 60 11 9 14 22 9 43 -5 24 -3 29 9 24 9 -3 36
4 61 16 43 21 45 23 26 35 -11 7 -20 19 -20 27 0 8 -9 19 -20 25 -30 16 -25
40 8 40 19 0 28 5 29 18 5 43 16 90 29 118 16 36 59 69 69 54 4 -6 19 3 36 19
27 28 56 41 122 56 16 3 40 18 54 33 16 17 43 31 76 38 29 7 53 12 55 13 2 0
13 -4 25 -10z m-2143 -148 c0 -14 -7 -35 -15 -45 -13 -17 -18 -18 -39 -6 -33
17 -39 68 -11 91 17 15 22 15 42 2 15 -10 23 -25 23 -42z m-170 -60 c0 -13
-26 -32 -33 -24 -14 13 -6 33 13 33 11 0 20 -4 20 -9z m300 -15 c0 -18 -16
-29 -30 -21 -13 8 -1 35 16 35 8 0 14 -6 14 -14z m-166 -104 c-21 -5 -26 2
-18 22 6 15 7 15 20 -1 11 -15 10 -19 -2 -21z m1601 -172 c3 -5 3 -15 -1 -21
-6 -11 -23 6 -24 24 0 10 18 9 25 -3z m1859 -594 c6 -65 5 -116 -2 -150 -6
-28 -19 -91 -28 -141 -31 -167 -51 -165 -53 4 -2 152 16 339 35 369 27 41 39
20 48 -82z m-197 -18 c-3 -8 -6 -5 -6 6 -1 11 2 17 5 13 3 -3 4 -12 1 -19z
m-1992 -28 c14 0 75 -68 85 -96 20 -53 32 -120 35 -204 2 -47 9 -101 14 -120
6 -19 11 -49 11 -67 0 -17 7 -59 16 -93 19 -74 11 -89 -35 -71 -47 20 -63 45
-72 113 -9 74 -23 140 -32 155 -14 22 -77 369 -72 392 6 22 7 22 24 7 10 -9
21 -16 26 -16z m2139 -458 c6 -47 -9 -92 -32 -92 -12 0 -13 8 -6 43 4 23 7 59
7 79 -1 30 1 35 12 25 7 -7 15 -32 19 -55z m-484 -49 c0 -10 -4 -14 -8 -8 -4
6 -11 13 -16 18 -5 4 -2 7 7 7 10 0 17 -8 17 -17z m-508 -443 c23 -34 20 -90
-5 -90 -23 0 -31 23 -17 49 7 14 8 27 2 38 -9 14 -11 14 -21 -6 -7 -12 -16
-19 -22 -16 -14 9 -11 20 13 50 16 21 23 24 27 14 3 -8 14 -25 23 -39z m52
-15 c4 -14 11 -25 16 -25 6 0 10 -7 10 -16 0 -9 -5 -14 -12 -12 -14 5 -41 78
-29 78 5 0 12 -11 15 -25z m81 -75 c3 -6 3 -20 0 -31 -6 -17 -9 -19 -16 -8
-12 19 -11 49 0 49 6 0 13 -5 16 -10z m-165 -15 c0 -8 -2 -15 -4 -15 -2 0 -6
7 -10 15 -3 8 -1 15 4 15 6 0 10 -7 10 -15z m100 -44 c0 -15 -12 -41 -19 -41
-15 1 -42 30 -36 39 8 13 55 15 55 2z m728 -126 c7 -14 12 -39 12 -55 0 -16 5
-41 10 -55 6 -15 13 -66 15 -113 3 -48 8 -123 11 -167 6 -99 23 -187 34 -180
5 3 12 20 16 37 3 18 10 39 15 48 4 8 11 40 16 70 l8 55 23 -23 c13 -13 30
-21 38 -18 23 9 17 -44 -15 -131 -16 -44 -32 -106 -36 -139 -6 -49 -14 -66
-44 -98 -49 -53 -93 -96 -127 -126 -32 -29 -64 -66 -89 -104 -10 -15 -27 -26
-39 -26 -12 0 -26 -4 -32 -10 -10 -10 -61 -38 -169 -94 -105 -54 -110 -60
-108 -108 1 -24 -4 -56 -10 -73 -14 -38 -76 -108 -145 -162 -80 -63 -94 -85
-123 -197 -7 -27 -26 -64 -42 -83 -28 -32 -31 -33 -48 -17 -10 9 -24 33 -30
52 -7 20 -18 43 -26 50 -7 7 -13 22 -13 32 0 10 -11 27 -25 38 -13 11 -22 22
-19 24 8 9 -115 225 -183 319 -18 26 -48 58 -66 72 -55 43 -123 111 -130 130
-4 9 -15 17 -26 17 -16 0 -21 9 -26 43 -4 24 -4 66 0 93 13 86 9 246 -7 299
-8 28 -13 55 -11 62 2 6 -7 47 -20 90 -28 89 -38 142 -41 234 -2 35 -6 79 -11
98 -7 28 -6 33 6 25 8 -4 21 -10 30 -11 9 -1 42 -17 75 -34 32 -18 76 -41 97
-52 27 -14 37 -25 37 -43 0 -25 15 -33 22 -12 3 8 17 0 39 -20 19 -17 41 -32
50 -32 9 0 19 -3 22 -6 11 -11 111 -43 119 -38 4 3 17 -5 28 -16 16 -16 24
-18 40 -10 13 7 26 7 38 1 19 -10 43 -6 137 22 28 8 66 18 85 21 90 14 104 17
120 26 14 7 20 5 25 -8 6 -16 7 -16 16 1 6 9 18 17 28 17 17 0 102 65 110 85
2 5 20 25 38 44 25 25 37 31 42 22 6 -9 10 -8 15 5 6 15 9 16 15 5 10 -15 31
-7 31 12 0 7 10 17 22 22 12 6 26 19 32 30 6 11 14 22 17 25 3 3 8 11 11 19 3
11 9 9 25 -8 17 -18 21 -19 26 -7 4 9 2 18 -3 21 -6 4 -10 12 -9 18 0 9 2 9 6
0 7 -18 33 -16 33 2 0 24 26 17 38 -10z m-1951 -791 c-3 -3 -12 -4 -19 -1 -8
3 -5 6 6 6 11 1 17 -2 13 -5z m1878 -243 c-3 -6 -11 -8 -17 -5 -6 4 -5 9 3 15
16 10 23 4 14 -10z m632 -10 c10 9 13 7 13 -9 0 -11 -8 -22 -20 -25 -11 -3
-20 -1 -20 3 0 5 -3 17 -6 27 -6 15 -4 16 6 6 10 -9 17 -10 27 -2z m-237 -42
c0 15 47 14 53 -1 4 -10 8 -9 17 2 9 13 10 12 8 -5 -2 -11 -7 -23 -13 -27 -17
-13 -63 -9 -78 7 -8 8 -18 11 -21 7 -4 -3 -4 1 0 11 5 14 9 15 20 6 10 -8 14
-8 14 0z m242 -91 c-7 -7 -12 -8 -12 -2 0 14 12 26 19 19 2 -3 -1 -11 -7 -17z
m-42 -3 c0 -8 -4 -15 -10 -15 -5 0 -7 7 -4 15 4 8 8 15 10 15 2 0 4 -7 4 -15z
m-153 -61 c-3 -3 -12 -4 -19 -1 -8 3 -5 6 6 6 11 1 17 -2 13 -5z m213 -18 c0
-8 -12 -11 -35 -8 -19 2 -33 8 -30 12 3 5 14 6 25 3 12 -3 20 0 20 6 0 7 5 9
10 6 6 -3 10 -12 10 -19z m-211 -2 c10 -9 -56 -3 -69 7 -11 7 -4 8 25 3 22 -4
42 -8 44 -10z m88 -6 c-3 -8 -6 -5 -6 6 -1 11 2 17 5 13 3 -3 4 -12 1 -19z
m421 -183 c-3 -3 -9 2 -12 12 -6 14 -5 15 5 6 7 -7 10 -15 7 -18z m79 -37 c-3
-8 -6 -5 -6 6 -1 11 2 17 5 13 3 -3 4 -12 1 -19z m-39 -13 c-3 -3 -9 2 -12 12
-6 14 -5 15 5 6 7 -7 10 -15 7 -18z m-2800 -180 c-3 -3 -9 2 -12 12 -6 14 -5
15 5 6 7 -7 10 -15 7 -18z m3132 -7 c0 -4 -17 -8 -37 -7 -30 0 -34 2 -18 9 24
10 55 9 55 -2z m604 -55 c-32 -47 -34 -49 -34 -32 0 13 45 69 55 69 2 0 -7
-17 -21 -37z m-764 16 c0 -5 -29 -9 -65 -9 -85 0 -85 15 0 16 36 1 65 -3 65
-7z m148 -8 c17 -1 15 -42 -3 -68 -12 -17 -21 -20 -42 -14 -19 5 -28 14 -27
27 3 63 3 63 32 60 15 -2 33 -4 40 -5z m-1750 -13 c-6 -18 -28 -21 -28 -4 0 9
7 16 16 16 9 0 14 -5 12 -12z m1362 -24 c0 -8 5 -14 10 -14 14 0 13 -37 -2
-46 -7 -5 -9 0 -6 14 4 13 2 20 -6 19 -6 -1 -10 6 -8 16 2 9 -2 17 -8 17 -5 0
-10 4 -10 10 0 5 7 7 15 4 8 -4 15 -12 15 -20z m447 -21 c-3 -10 -5 -2 -5 17
0 19 2 27 5 18 2 -10 2 -26 0 -35z m426 18 c-3 -11 -11 -22 -18 -25 -20 -7
-27 22 -7 33 25 15 31 13 25 -8z m-3573 -1 c0 -5 -8 -10 -17 -10 -14 0 -15 -2
-4 -9 9 -6 10 -11 2 -15 -6 -4 -15 -4 -21 -1 -16 10 -12 33 8 38 29 8 32 7 32
-3z m2920 -15 c-7 -8 -9 -15 -4 -15 4 0 -3 -11 -15 -24 -22 -24 -87 -40 -97
-24 -3 4 -2 23 2 43 l6 35 60 0 c53 0 59 -2 48 -15z m710 -8 c0 -7 -11 -24
-25 -39 -14 -15 -25 -32 -25 -37 0 -5 -4 -12 -9 -15 -5 -4 -8 0 -7 6 6 26 25
66 36 73 5 3 8 11 5 16 -4 5 1 9 9 9 9 0 16 -6 16 -13z m-3887 -44 c-3 -7 -16
-13 -29 -13 -19 0 -24 5 -24 25 0 14 5 25 10 25 6 0 10 -4 10 -10 0 -18 20
-11 21 8 0 14 2 14 8 -3 5 -11 6 -26 4 -32z m267 -14 c0 -11 -4 -17 -10 -14
-5 3 -10 1 -10 -4 0 -6 -7 -11 -15 -11 -14 0 -13 3 2 25 22 30 33 32 33 4z
m3030 -3 c0 -3 -4 -8 -10 -11 -5 -3 -10 -1 -10 4 0 6 5 11 10 11 6 0 10 -2 10
-4z m-3300 -36 c0 -5 -7 -7 -15 -4 -8 4 -15 8 -15 10 0 2 7 4 15 4 8 0 15 -4
15 -10z m3110 0 c-8 -5 -24 -9 -35 -9 l-20 0 20 9 c11 5 27 9 35 9 13 1 13 0
0 -9z m860 -5 c0 -2 -7 -5 -15 -9 -9 -3 -15 0 -15 9 0 9 6 12 15 9 8 -4 15 -7
15 -9z m-3700 -15 c0 -5 -5 -10 -11 -10 -5 0 -7 5 -4 10 3 6 8 10 11 10 2 0 4
-4 4 -10z m3076 0 c5 -1 -17 -105 -23 -111 -4 -4 -19 -9 -33 -11 -23 -3 -25 0
-24 32 1 19 2 50 3 68 1 33 2 34 39 28 20 -3 37 -5 38 -6z m-1376 -15 c0 -29
-31 -65 -56 -65 -21 0 -24 5 -24 33 0 42 5 47 47 47 23 0 33 -5 33 -15z m1200
-39 c0 -47 -3 -54 -22 -60 -33 -8 -48 -7 -48 4 0 6 8 10 18 10 16 1 16 1 -1
11 -23 13 -42 -1 -52 -38 -11 -44 -17 -18 -10 41 6 49 10 56 29 56 12 0 31 7
42 15 35 26 44 19 44 -39z m-1323 -8 c-2 -13 -4 -5 -4 17 -1 22 1 32 4 23 2
-10 2 -28 0 -40z m1108 -33 c0 -67 -1 -70 -25 -73 -14 -1 -30 1 -37 5 -12 8
-6 66 6 58 4 -2 7 4 7 13 0 59 4 69 27 68 21 -1 22 -5 22 -71z m882 53 c-3 -8
-6 -5 -6 6 -1 11 2 17 5 13 3 -3 4 -12 1 -19z m138 12 c-3 -5 -10 -10 -16 -10
-5 0 -9 5 -9 10 0 6 7 10 16 10 8 0 12 -4 9 -10z m-3978 -37 c-3 -3 -10 -2
-16 2 -7 4 -7 10 2 20 10 11 13 11 15 -2 2 -8 1 -17 -1 -20z m2280 23 c-3 -8
-1 -17 6 -19 8 -3 3 -12 -12 -25 -13 -12 -28 -19 -32 -16 -13 8 -1 24 17 24 8
0 14 6 13 13 -2 20 1 37 7 37 3 0 4 -6 1 -14z m734 -88 c-9 -31 -10 -30 -9 22
2 67 12 98 16 48 2 -20 -1 -51 -7 -70z m-2731 57 c0 -27 -4 -35 -17 -34 -12 0
-13 2 -5 6 10 4 10 8 2 19 -9 10 -8 17 2 28 18 21 18 21 18 -19z m47 3 c-3 -8
-6 -5 -6 6 -1 11 2 17 5 13 3 -3 4 -12 1 -19z m2890 -25 c-3 -10 -5 -4 -5 12
0 17 2 24 5 18 2 -7 2 -21 0 -30z m-3087 23 c0 -2 -7 -6 -15 -10 -8 -3 -15 -1
-15 4 0 6 7 10 15 10 8 0 15 -2 15 -4z m-140 -16 c8 -5 12 -11 9 -14 -3 -3
-14 1 -25 9 -21 16 -8 20 16 5z m57 -12 c-3 -8 -6 -5 -6 6 -1 11 2 17 5 13 3
-3 4 -12 1 -19z m3113 -52 c0 -9 -40 -13 -46 -5 -3 5 6 9 20 9 14 0 26 -2 26
-4z m-2990 -26 c-8 -6 -22 -10 -30 -10 -8 0 -4 6 10 13 27 15 44 12 20 -3z
m3105 10 c3 -5 1 -10 -4 -10 -6 0 -11 5 -11 10 0 6 2 10 4 10 3 0 8 -4 11 -10z
m-2378 -32 c-3 -8 -6 -5 -6 6 -1 11 2 17 5 13 3 -3 4 -12 1 -19z m1193 10 c0
-25 -16 -37 -52 -40 -21 -1 -40 1 -44 5 -4 4 2 7 13 7 12 0 23 7 27 15 3 8 12
12 21 9 8 -3 15 -1 15 5 0 6 5 11 10 11 6 0 10 -6 10 -12z m845 -18 c-25 -11
-58 -12 -52 -2 3 4 20 8 39 9 26 1 29 0 13 -7z m205 -2 c0 -9 4 -8 10 2 7 11
10 4 10 -26 0 -22 -2 -43 -4 -45 -3 -2 -25 -3 -49 -1 -44 4 -45 5 -45 37 0 35
8 41 56 44 12 0 22 -5 22 -11z m150 -8 c-10 -7 -12 -12 -4 -17 7 -6 4 -16 -11
-31 l-22 -24 2 24 c1 12 3 31 4 41 1 11 9 17 24 17 18 0 19 -2 7 -10z m-3330
-10 c0 -5 -2 -10 -4 -10 -3 0 -8 5 -11 10 -3 6 -1 10 4 10 6 0 11 -4 11 -10z
m3087 -32 c-3 -7 -5 -2 -5 12 0 14 2 19 5 13 2 -7 2 -19 0 -25z m-101 -19 c-1
-30 -12 -41 -51 -53 -17 -5 -20 -1 -22 33 -3 41 4 47 53 50 18 1 21 -4 20 -30z
m261 -1 c-3 -7 -5 -2 -5 12 0 14 2 19 5 13 2 -7 2 -19 0 -25z m-380 -30 c-3
-7 -5 -2 -5 12 0 14 2 19 5 13 2 -7 2 -19 0 -25z m-717 2 c0 -5 -4 -10 -10
-10 -5 0 -10 5 -10 10 0 6 5 10 10 10 6 0 10 -4 10 -10z m993 -17 c-7 -2 -21
-2 -30 0 -10 3 -4 5 12 5 17 0 24 -2 18 -5z m-1016 -39 c-3 -3 -12 -4 -19 -1
-8 3 -5 6 6 6 11 1 17 -2 13 -5z m-1673 -49 c3 -8 1 -15 -4 -15 -6 0 -10 7
-10 15 0 8 2 15 4 15 2 0 6 -7 10 -15z m43 -17 c-3 -8 -6 -5 -6 6 -1 11 2 17
5 13 3 -3 4 -12 1 -19z m1411 -9 c-3 -32 -30 -60 -45 -46 -4 5 -1 12 7 17 13
9 13 10 0 10 -12 1 -11 3 3 11 9 5 17 17 17 24 0 8 5 15 11 15 6 0 9 -14 7
-31z m1629 -151 c-3 -8 -6 -5 -6 6 -1 11 2 17 5 13 3 -3 4 -12 1 -19z m-2067
-13 c0 -28 -24 -34 -34 -9 -8 20 1 34 20 34 8 0 14 -10 14 -25z m1625 -15 c3
-5 1 -10 -4 -10 -6 0 -11 5 -11 10 0 6 2 10 4 10 3 0 8 -4 11 -10z m-625 -21
c0 -5 -4 -9 -10 -9 -5 0 -10 7 -10 16 0 8 5 12 10 9 6 -3 10 -10 10 -16z
m-3317 -66 c-7 -2 -21 -2 -30 0 -10 3 -4 5 12 5 17 0 24 -2 18 -5z m27 -43 c0
-5 -2 -10 -4 -10 -3 0 -8 5 -11 10 -3 6 -1 10 4 10 6 0 11 -4 11 -10z m1250
-31 c0 -6 7 -9 15 -5 12 4 13 2 6 -13 -22 -40 -63 -28 -47 14 6 17 26 20 26 4z
m4180 -94 c0 -2 -7 -5 -15 -9 -9 -3 -15 0 -15 9 0 9 6 12 15 9 8 -4 15 -7 15
-9z m-4200 -18 c0 -8 -3 -17 -7 -20 -9 -9 -34 13 -27 24 8 14 34 11 34 -4z
m273 6 c-13 -2 -35 -2 -50 0 -16 2 -5 4 22 4 28 0 40 -2 28 -4z m54 1 c-3 -3
-12 -4 -19 -1 -8 3 -5 6 6 6 11 1 17 -2 13 -5z m3363 2 c0 -13 -28 -55 -33
-49 -4 3 -7 -1 -7 -10 0 -9 -7 -17 -15 -17 -18 0 -21 66 -4 72 17 6 59 8 59 4z
m-3550 -10 c0 -2 -7 -6 -15 -10 -8 -3 -15 -1 -15 4 0 6 7 10 15 10 8 0 15 -2
15 -4z m-55 -16 c-27 -12 -43 -12 -25 0 8 5 22 9 30 9 10 0 8 -3 -5 -9z m3482
-12 c-3 -8 -6 -5 -6 6 -1 11 2 17 5 13 3 -3 4 -12 1 -19z m613 12 c0 -5 -2
-10 -4 -10 -3 0 -8 5 -11 10 -3 6 -1 10 4 10 6 0 11 -4 11 -10z m-4155 -20
c-3 -5 -21 -10 -38 -9 -27 0 -29 2 -12 9 28 12 57 12 50 0z m3496 -4 c0 -6 3
-23 5 -38 4 -24 1 -28 -31 -34 -68 -12 -132 41 -72 61 66 23 97 26 98 11z
m-4714 -33 c-3 -10 -5 -4 -5 12 0 17 2 24 5 18 2 -7 2 -21 0 -30z m1110 31
c-3 -3 -12 -4 -19 -1 -8 3 -5 6 6 6 11 1 17 -2 13 -5z m1900 -93 c-17 -6 -37
31 -36 68 l1 36 23 -50 c14 -30 19 -52 12 -54z m1343 84 c0 -8 -7 -15 -15 -15
-9 0 -12 6 -9 15 4 8 10 15 15 15 5 0 9 -7 9 -15z m-4370 -43 c0 -23 -17 -4
-23 25 -5 26 -4 26 9 8 8 -10 14 -25 14 -33z m4180 23 c7 -9 8 -15 2 -15 -5 0
-12 7 -16 15 -3 8 -4 15 -2 15 2 0 9 -7 16 -15z m-3505 -15 c3 -5 1 -10 -4
-10 -6 0 -11 5 -11 10 0 6 2 10 4 10 3 0 8 -4 11 -10z m3505 -30 c-20 -13 -43
-13 -35 0 3 6 16 10 28 10 18 0 19 -2 7 -10z m-1074 -12 c4 -7 3 -8 -4 -4 -7
4 -12 2 -12 -3 0 -6 -7 -11 -15 -11 -8 0 -15 7 -15 15 0 18 36 20 46 3z m591
-3 c12 -12 12 -19 3 -30 -14 -17 -40 -9 -40 14 0 32 14 38 37 16z m-550 -1
c-3 -3 -12 -4 -19 -1 -8 3 -5 6 6 6 11 1 17 -2 13 -5z m968 -4 c-3 -5 -14 -10
-23 -10 -15 0 -15 2 -2 10 20 13 33 13 25 0z m-1109 -25 c18 -15 18 -15 -5
-13 -14 2 -26 9 -29 16 -5 17 10 15 34 -3z m1714 5 c0 -5 -12 -10 -27 -9 -25
0 -26 1 -8 9 27 12 35 12 35 0z m183 -21 c-4 -14 -11 -18 -22 -14 -13 5 -14 4
-3 -6 20 -21 14 -29 -13 -17 -14 6 -25 14 -25 17 1 15 17 29 40 34 14 2 26 5
27 6 0 0 -1 -8 -4 -20z m-1553 -10 c59 -18 63 -19 58 -24 -2 -2 -26 2 -53 10
-26 8 -84 15 -127 15 -56 0 -77 3 -72 11 8 13 137 5 194 -12z m561 -24 c-18
-8 -43 -15 -55 -14 -14 1 -7 6 19 14 54 18 78 18 36 0z m-1152 -11 c2 -2 -19
-4 -48 -4 -29 0 -50 4 -47 9 5 8 85 4 95 -5z m-869 -4 c0 -5 -4 -10 -9 -10 -6
0 -13 5 -16 10 -3 6 1 10 9 10 9 0 16 -4 16 -10z m643 3 c-7 -2 -19 -2 -25 0
-7 3 -2 5 12 5 14 0 19 -2 13 -5z m2190 -3 c-31 -12 -29 -22 1 -14 22 5 25 2
32 -31 8 -46 -20 -80 -74 -89 -42 -6 -52 3 -52 51 0 36 20 56 21 21 1 -21 2
-20 9 5 5 16 13 34 19 41 9 10 5 13 -16 10 -28 -4 -28 -4 -3 5 14 5 39 9 55 9
28 1 28 0 8 -8z m-743 -9 c0 -5 8 -12 18 -14 13 -4 11 -5 -5 -6 -13 0 -23 3
-23 8 0 5 -8 12 -17 14 -14 4 -12 5 5 6 12 0 22 -3 22 -8z m203 -31 c8 -29
-12 -24 -23 6 -13 34 -13 39 4 25 8 -6 16 -21 19 -31z m64 3 c-3 -10 -5 -4 -5
12 0 17 2 24 5 18 2 -7 2 -21 0 -30z m608 27 c3 -5 1 -10 -4 -10 -6 0 -11 5
-11 10 0 6 2 10 4 10 3 0 8 -4 11 -10z m-3074 -9 c7 11 9 10 9 -4 0 -10 -6
-24 -13 -32 -11 -11 -14 -8 -14 18 0 18 2 26 5 18 4 -11 6 -11 13 0z m1994 -1
c-27 -12 -43 -12 -25 0 8 5 22 9 30 9 10 0 8 -3 -5 -9z m-2025 -20 c0 -11 -2
-20 -4 -20 -2 0 -6 9 -9 20 -3 11 -1 20 4 20 5 0 9 -9 9 -20z m808 -53 c3 -40
0 -47 -15 -46 -36 1 -48 14 -49 51 -1 30 3 38 20 41 36 7 41 2 44 -46z m124
13 c-2 -22 -8 -40 -13 -40 -5 0 -9 18 -9 40 0 26 5 40 13 40 9 0 11 -12 9 -40z
m93 30 c16 0 12 -60 -5 -70 -8 -5 -30 -10 -47 -10 -30 0 -33 3 -33 31 0 24 4
30 18 27 9 -2 16 -10 15 -16 -2 -7 8 -12 25 -11 16 1 20 3 10 6 -10 2 -18 9
-18 14 0 6 4 8 9 4 5 -3 12 -1 16 5 3 5 -3 10 -14 10 -11 0 -23 5 -27 12 -5 8
0 9 17 5 13 -4 29 -7 34 -7z m150 2 c6 -4 11 -21 12 -39 1 -24 -3 -34 -18 -38
-30 -10 -41 3 -33 38 10 48 17 55 39 39z m1092 -13 c2 -21 -25 -26 -32 -6 -3
6 -19 13 -36 14 -23 2 -29 -1 -26 -12 3 -7 -1 -16 -9 -19 -25 -10 -34 -7 -34
9 0 18 16 20 24 3 4 -7 4 -3 2 9 -3 19 1 21 53 21 49 0 57 -3 58 -19z m136 1
c3 -13 0 -20 -9 -20 -8 0 -14 9 -14 20 0 11 4 20 9 20 5 0 11 -9 14 -20z
m-373 -20 c0 -5 -7 -7 -15 -4 -8 4 -15 8 -15 10 0 2 7 4 15 4 8 0 15 -4 15
-10z m408 -47 c-10 -2 -28 -2 -40 0 -13 2 -5 4 17 4 22 1 32 -1 23 -4z m-415
-10 c-7 -2 -21 -2 -30 0 -10 3 -4 5 12 5 17 0 24 -2 18 -5z m157 -3 c-20 -13
-40 -13 -40 0 0 6 12 10 28 10 21 0 24 -2 12 -10z m-1010 -30 c0 -5 -10 -10
-22 -10 -19 0 -20 2 -8 10 19 13 30 13 30 0z m1023 -42 c-3 -22 -1 -29 9 -26
7 3 14 15 14 27 2 33 24 52 25 21 0 -23 1 -23 9 -5 6 14 9 15 9 5 1 -19 -45
-70 -63 -70 -8 0 -16 -7 -20 -15 -3 -8 -1 -15 4 -15 5 0 7 -7 4 -15 -4 -8 -12
-15 -20 -15 -11 0 -14 17 -14 74 0 72 0 73 24 69 20 -4 23 -9 19 -35z m84 20
c-3 -8 -6 -5 -6 6 -1 11 2 17 5 13 3 -3 4 -12 1 -19z m183 6 c0 -10 -6 -14
-14 -11 -8 3 -17 -2 -21 -11 -6 -15 -8 -15 -15 3 -8 18 -9 18 -10 -5 -1 -23
-2 -23 -10 -5 -16 38 -12 45 30 45 30 0 40 -4 40 -16z m-424 -5 c9 -15 14 -90
8 -112 -5 -15 -8 -16 -26 -3 -11 8 -27 12 -34 9 -11 -4 -14 6 -14 40 0 44 1
46 28 41 23 -3 24 -2 9 7 -9 5 -15 14 -12 20 8 12 32 11 41 -2z m61 -51 c-2
-13 -4 -3 -4 22 0 25 2 35 4 23 2 -13 2 -33 0 -45z m828 52 c-3 -5 -11 -10
-16 -10 -6 0 -7 5 -4 10 3 6 11 10 16 10 6 0 7 -4 4 -10z m-1685 -19 c0 -6 -4
-13 -10 -16 -5 -3 -10 1 -10 9 0 9 5 16 10 16 6 0 10 -4 10 -9z m-70 -53 c0
-50 -15 -78 -41 -78 -18 0 -20 4 -13 48 8 60 20 83 39 76 10 -4 15 -20 15 -46z
m1800 22 c0 -5 -2 -10 -4 -10 -3 0 -8 5 -11 10 -3 6 -1 10 4 10 6 0 11 -4 11
-10z m-2213 -37 c-3 -10 -5 -4 -5 12 0 17 2 24 5 18 2 -7 2 -21 0 -30z m273
23 c0 -7 -3 -34 -6 -58 -6 -39 -11 -48 -41 -62 -18 -9 -48 -16 -65 -16 -27 0
-30 3 -24 23 3 12 6 31 6 43 0 12 10 26 23 32 12 6 16 11 10 11 -7 1 -13 6
-13 13 0 6 3 9 6 6 3 -4 17 0 32 8 34 18 72 18 72 0z m-233 -17 c2 -16 -1 -19
-9 -11 -5 5 -7 15 -4 21 10 15 12 14 13 -10z m1456 -4 c-7 -21 -13 -19 -13 6
0 11 4 18 10 14 5 -3 7 -12 3 -20z m-1406 -47 c-3 -7 -5 -2 -5 12 0 14 2 19 5
13 2 -7 2 -19 0 -25z m1080 10 c-3 -8 -6 -5 -6 6 -1 11 2 17 5 13 3 -3 4 -12
1 -19z m83 -8 c0 -5 -10 -10 -22 -9 -22 0 -22 1 -3 9 11 5 21 9 23 9 1 1 2 -3
2 -9z m-1283 -42 c-3 -8 -6 -5 -6 6 -1 11 2 17 5 13 3 -3 4 -12 1 -19z m1278
-18 c-3 -5 -10 -10 -16 -10 -5 0 -9 5 -9 10 0 6 7 10 16 10 8 0 12 -4 9 -10z
m-1575 -22 c0 -5 -9 -4 -20 2 -11 6 -20 12 -20 14 0 2 9 2 20 -1 11 -3 20 -9
20 -15z m715 12 c-27 -12 -35 -12 -35 0 0 6 12 10 28 9 24 0 25 -1 7 -9z
m-2835 -20 c0 -5 -4 -10 -10 -10 -5 0 -10 5 -10 10 0 6 5 10 10 10 6 0 10 -4
10 -10z m2098 -12 c18 -18 15 -28 -8 -28 -13 0 -20 7 -20 20 0 23 10 26 28 8z
m552 -8 c-8 -5 -28 -9 -45 -9 l-30 1 30 8 c17 4 37 8 45 9 13 1 13 0 0 -9z
m185 -14 c17 -12 18 -18 7 -40 -21 -46 -52 -28 -52 30 0 27 17 31 45 10z m75
0 c0 -3 -4 -8 -10 -11 -5 -3 -10 -1 -10 4 0 6 5 11 10 11 6 0 10 -2 10 -4z
m-228 -34 c-7 -2 -12 -12 -12 -22 0 -11 -13 -25 -32 -34 -35 -18 -72 -21 -63
-6 4 6 11 7 17 4 6 -4 8 4 6 21 -3 24 2 29 42 45 30 12 46 14 49 7 2 -6 -1
-13 -7 -15z m-2842 -21 c0 -17 -13 -26 -45 -33 -5 -1 -16 -8 -23 -15 -15 -14
-62 -18 -62 -5 0 5 10 18 23 29 50 46 107 59 107 24z m2617 -11 c-3 -13 0 -20
9 -20 16 0 19 -16 4 -25 -6 -4 -7 -12 -3 -18 5 -9 3 -9 -8 0 -12 10 -18 10
-27 1 -9 -9 -12 -6 -12 13 0 14 5 30 12 37 7 7 8 12 3 12 -6 0 -3 5 5 10 21
14 23 13 17 -10z m73 -54 c-9 -8 -10 -2 -7 24 7 47 9 50 14 16 3 -16 -1 -34
-7 -40z m-2521 9 c-17 -17 -69 -30 -69 -19 1 21 19 37 39 31 12 -3 19 -1 15 4
-3 5 -2 14 2 20 5 8 10 6 16 -6 7 -12 6 -21 -3 -30z m5511 -159 c0 -11 -19
-15 -25 -6 -3 5 1 10 9 10 9 0 16 -2 16 -4z m-100 -16 c0 -5 -5 -10 -11 -10
-5 0 -7 5 -4 10 3 6 8 10 11 10 2 0 4 -4 4 -10z m157 -27 c-3 -10 -5 -4 -5 12
0 17 2 24 5 18 2 -7 2 -21 0 -30z m-77 7 c0 -5 -4 -10 -9 -10 -6 0 -13 5 -16
10 -3 6 1 10 9 10 9 0 16 -4 16 -10z m13 -70 c-4 -5 -28 -9 -53 -10 -71 -4
-77 -2 -50 17 14 10 29 17 34 15 5 -2 6 4 3 13 -5 12 1 15 28 15 26 0 35 5 37
18 1 9 3 0 5 -22 3 -21 1 -42 -4 -46z m-243 44 c0 -8 -7 -14 -15 -14 -17 0
-18 2 -9 24 7 18 24 12 24 -10z m-830 12 c0 -3 -4 -8 -10 -11 -5 -3 -10 -1
-10 4 0 6 5 11 10 11 6 0 10 -2 10 -4z m30 -10 c0 -8 -4 -18 -10 -21 -5 -3
-10 3 -10 14 0 12 5 21 10 21 6 0 10 -6 10 -14z m1097 -28 c-3 -8 -6 -5 -6 6
-1 11 2 17 5 13 3 -3 4 -12 1 -19z m-62 -68 c7 -12 -2 -12 -30 0 -19 8 -19 9
2 9 12 1 25 -3 28 -9z m-51 -36 c12 -4 13 -11 5 -28 -8 -18 -17 -22 -36 -18
-18 3 -24 1 -19 -7 5 -7 -2 -11 -18 -11 -21 0 -26 5 -26 25 0 36 48 56 94 39z
m-193 -21 c11 -11 -26 -48 -58 -58 -20 -6 -23 -3 -23 24 0 17 5 31 11 31 5 0
8 4 5 8 -7 11 54 6 65 -5z m-804 -85 c-3 -7 -5 -2 -5 12 0 14 2 19 5 13 2 -7
2 -19 0 -25z m37 5 c-8 -35 -13 -43 -24 -43 -7 0 -5 22 6 58 7 25 24 12 18
-15z m22 -20 c-11 -11 -17 4 -9 23 7 18 8 18 11 1 2 -10 1 -21 -2 -24z m-4214
-29 c25 -9 28 -27 7 -52 -16 -20 -21 -22 -41 -10 -13 7 -26 12 -30 13 -5 0 -8
3 -8 8 0 4 0 11 0 16 0 16 32 42 44 36 6 -3 19 -8 28 -11z m-343 -87 c-5 -21
-14 -35 -20 -32 -5 4 -7 10 -4 14 2 5 9 21 15 36 15 39 21 26 9 -18z m101 4
c-1 -3 -9 -21 -19 -40 -12 -23 -20 -30 -26 -22 -4 7 -2 18 4 24 7 7 7 14 0 24
-9 9 -8 13 0 13 7 0 10 4 7 9 -4 5 3 7 14 4 11 -3 20 -8 20 -12z m-113 -71
c-1 -11 -4 -20 -8 -20 -10 0 -19 27 -12 34 12 12 22 5 20 -14z m143 0 c0 -5
-5 -10 -11 -10 -5 0 -7 5 -4 10 3 6 8 10 11 10 2 0 4 -4 4 -10z m5195 -70 c3
-5 1 -10 -4 -10 -6 0 -11 5 -11 10 0 6 2 10 4 10 3 0 8 -4 11 -10z"/>
<path d="M5800 7140 c0 -5 7 -10 15 -10 8 0 15 5 15 10 0 6 -7 10 -15 10 -8 0
-15 -4 -15 -10z"/>
<path d="M4070 6670 c0 -5 5 -10 10 -10 6 0 10 5 10 10 0 6 -4 10 -10 10 -5 0
-10 -4 -10 -10z"/>
<path d="M4194 5909 c-45 -13 -77 -50 -66 -79 l8 -22 17 26 c13 20 26 26 52
26 18 0 40 7 49 15 8 8 23 15 33 15 10 0 24 4 31 9 30 19 -66 27 -124 10z"/>
<path d="M3612 5886 c-18 -6 -30 -14 -27 -18 4 -3 -2 -8 -12 -11 -26 -7 -117
-21 -125 -19 -5 1 -8 -2 -8 -8 0 -5 -11 -10 -25 -10 -29 0 -76 -22 -92 -42
-18 -22 -24 -65 -10 -71 6 -2 64 6 127 19 63 13 130 24 148 24 30 0 32 2 32
35 0 40 17 52 49 36 23 -13 43 6 21 19 -7 4 8 7 34 6 38 -1 51 -6 70 -30 l23
-29 6 24 c17 63 -114 111 -211 75z m-42 -86 c0 -5 -7 -10 -15 -10 -8 0 -15 5
-15 10 0 6 7 10 15 10 8 0 15 -4 15 -10z m-92 -44 c3 -15 0 -17 -20 -11 -30
10 -31 11 -23 25 10 17 39 8 43 -14z"/>
<path d="M4285 5865 c-16 -9 -37 -23 -45 -32 -13 -14 -13 -15 5 -8 51 19 55
18 66 -14 9 -27 16 -31 47 -32 21 -1 45 -1 55 0 9 1 17 -3 17 -8 0 -6 5 -11
10 -11 6 0 10 9 10 19 0 21 17 37 27 27 3 -3 1 -12 -5 -19 -14 -16 -6 -28 13
-21 7 3 38 -1 69 -10 56 -14 57 -14 72 10 9 13 14 31 10 39 -8 23 -92 58 -118
50 -11 -4 -18 -3 -15 1 3 5 -7 9 -21 9 -15 1 -58 4 -97 8 -55 6 -76 4 -100 -8z
m100 -35 c3 -5 -1 -10 -9 -10 -9 0 -16 5 -16 10 0 6 4 10 9 10 6 0 13 -4 16
-10z"/>
<path d="M4195 5810 c-3 -5 1 -10 9 -10 9 0 16 5 16 10 0 6 -4 10 -9 10 -6 0
-13 -4 -16 -10z"/>
<path d="M4100 5360 c-8 -5 -12 -12 -9 -15 4 -3 12 1 19 10 14 17 11 19 -10 5z"/>
<path d="M3862 5350 c14 -4 32 -11 40 -16 10 -6 10 -4 -1 9 -7 9 -25 17 -40
16 l-26 -1 27 -8z"/>
<path d="M3815 5310 c3 -5 11 -10 16 -10 6 0 7 5 4 10 -3 6 -11 10 -16 10 -6
0 -7 -4 -4 -10z"/>
<path d="M4257 5304 c-11 -11 3 -24 18 -18 8 4 12 10 9 15 -6 11 -18 12 -27 3z"/>
<path d="M3672 4978 c6 -16 108 -18 108 -3 0 6 -25 11 -56 13 -43 2 -55 0 -52
-10z"/>
<path d="M3988 4953 c6 -2 18 -2 25 0 6 3 1 5 -13 5 -14 0 -19 -2 -12 -5z"/>
<path d="M5818 2383 c7 -3 16 -2 19 1 4 3 -2 6 -13 5 -11 0 -14 -3 -6 -6z"/>
<path d="M6580 1270 c0 -5 5 -10 11 -10 5 0 7 5 4 10 -3 6 -8 10 -11 10 -2 0
-4 -4 -4 -10z"/>
<path d="M5320 7983 c19 -9 69 -31 110 -50 41 -19 82 -40 90 -47 8 -8 26 -17
40 -21 22 -6 136 -54 288 -121 28 -12 76 -46 106 -74 31 -29 57 -47 60 -41 29
47 231 27 512 -49 100 -27 206 -58 235 -69 30 -11 101 -27 159 -36 58 -8 148
-27 200 -41 209 -58 331 -87 460 -110 74 -13 179 -39 235 -58 55 -18 119 -36
143 -39 l42 -5 0 389 0 389 -1357 -1 c-1250 0 -1355 -2 -1323 -16z"/>
<path d="M4414 7894 c-18 -14 -18 -15 4 -4 12 6 22 13 22 15 0 8 -5 6 -26 -11z"/>
<path d="M7026 7425 c91 -26 172 -41 162 -30 -10 10 -189 55 -218 54 -14 0 12
-11 56 -24z"/>
</g>
</svg>
